# Blender v3.1.2 OBJ File: '1.blend'
# www.blender.org
mtllib 1.mtl
o 円柱.003
v -0.011316 0.735969 1.672510
v -0.409580 -0.290761 1.596055
v -0.024927 -0.297234 1.637318
v -0.395967 0.742441 1.631247
v -0.778753 -0.281964 1.480577
v -0.765142 0.751237 1.515770
v -1.118261 -0.271181 1.295323
v -1.104651 0.762022 1.330516
v -1.415059 -0.258828 1.047409
v -1.401446 0.774375 1.082601
v -1.657736 -0.245375 0.746363
v -1.644125 0.787826 0.781556
v -1.836970 -0.231345 0.403754
v -1.823357 0.801858 0.438946
v -1.945871 -0.217272 0.032750
v -1.932258 0.815930 0.067942
v -1.980255 -0.203701 -0.352395
v -1.966642 0.829500 -0.317201
v -1.938801 -0.191151 -0.736877
v -1.925188 0.842049 -0.701684
v -1.823100 -0.180105 -1.105920
v -1.809488 0.853096 -1.070727
v -1.637600 -0.170988 -1.445346
v -1.623989 0.862213 -1.410152
v -1.389431 -0.164149 -1.742106
v -1.375820 0.869052 -1.706912
v -1.088127 -0.159852 -1.984799
v -1.074516 0.873349 -1.949606
v -0.745271 -0.158261 -2.164096
v -0.731658 0.874941 -2.128904
v -0.374033 -0.159438 -2.273109
v -0.360423 0.873762 -2.237918
v 0.011317 -0.163340 -2.307651
v 0.024927 0.869862 -2.272459
v 0.395968 -0.169811 -2.266387
v 0.409580 0.863390 -2.231196
v 0.765143 -0.178610 -2.150911
v 0.778754 0.854593 -2.115719
v 1.104651 -0.189393 -1.965656
v 1.118262 0.843809 -1.930464
v 1.401447 -0.201748 -1.717741
v 1.415058 0.831455 -1.682549
v 1.644124 -0.215199 -1.416696
v 1.657736 0.818003 -1.381504
v 1.823358 -0.229229 -1.074088
v 1.836970 0.803972 -1.038895
v 1.932259 -0.243301 -0.703083
v 1.945871 0.789901 -0.667891
v 1.966643 -0.256873 -0.317939
v 1.980255 0.776329 -0.282747
v 1.925189 -0.269423 0.066544
v 1.938800 0.763780 0.101736
v 1.809489 -0.280469 0.435587
v 1.823101 0.752734 0.470779
v 1.623990 -0.289587 0.775010
v 1.637601 0.743617 0.810204
v 1.375821 -0.296425 1.071772
v 1.389431 0.736777 1.106964
v 1.074517 -0.300722 1.314466
v 1.088128 0.732482 1.349659
v 0.731659 -0.302311 1.493765
v 0.745270 0.730890 1.528955
v 0.360421 -0.301135 1.602777
v 0.374034 0.732067 1.637970
vt 1.000000 1.000000
vt 0.968750 0.500000
vt 1.000000 0.500000
vt 0.968750 1.000000
vt 0.937500 0.500000
vt 0.937500 1.000000
vt 0.906250 0.500000
vt 0.906250 1.000000
vt 0.875000 0.500000
vt 0.875000 1.000000
vt 0.843750 0.500000
vt 0.843750 1.000000
vt 0.812500 0.500000
vt 0.812500 1.000000
vt 0.781250 0.500000
vt 0.781250 1.000000
vt 0.750000 0.500000
vt 0.750000 1.000000
vt 0.718750 0.500000
vt 0.718750 1.000000
vt 0.687500 0.500000
vt 0.687500 1.000000
vt 0.656250 0.500000
vt 0.656250 1.000000
vt 0.625000 0.500000
vt 0.625000 1.000000
vt 0.593750 0.500000
vt 0.593750 1.000000
vt 0.562500 0.500000
vt 0.562500 1.000000
vt 0.531250 0.500000
vt 0.531250 1.000000
vt 0.500000 0.500000
vt 0.500000 1.000000
vt 0.468750 0.500000
vt 0.468750 1.000000
vt 0.437500 0.500000
vt 0.437500 1.000000
vt 0.406250 0.500000
vt 0.406250 1.000000
vt 0.375000 0.500000
vt 0.375000 1.000000
vt 0.343750 0.500000
vt 0.343750 1.000000
vt 0.312500 0.500000
vt 0.312500 1.000000
vt 0.281250 0.500000
vt 0.281250 1.000000
vt 0.250000 0.500000
vt 0.250000 1.000000
vt 0.218750 0.500000
vt 0.218750 1.000000
vt 0.187500 0.500000
vt 0.187500 1.000000
vt 0.156250 0.500000
vt 0.156250 1.000000
vt 0.125000 0.500000
vt 0.125000 1.000000
vt 0.093750 0.500000
vt 0.093750 1.000000
vt 0.062500 0.500000
vt 0.028269 0.341844
vt 0.158156 0.028269
vt 0.471731 0.158156
vt 0.062500 1.000000
vt 0.031250 0.500000
vt 0.031250 1.000000
vt 0.000000 0.500000
vt 0.985388 0.296822
vt 0.796822 0.014612
vt 0.514612 0.203178
vt 0.341844 0.471731
vt 0.296822 0.485388
vt 0.158156 0.471731
vt 0.250000 0.490000
vt 0.203178 0.485388
vt 0.116663 0.449553
vt 0.080294 0.419706
vt 0.050447 0.383337
vt 0.014612 0.296822
vt 0.010000 0.250000
vt 0.014612 0.203178
vt 0.028269 0.158156
vt 0.050447 0.116663
vt 0.080294 0.080294
vt 0.116663 0.050447
vt 0.203178 0.014612
vt 0.250000 0.010000
vt 0.296822 0.014612
vt 0.341844 0.028269
vt 0.383337 0.050447
vt 0.419706 0.080294
vt 0.449553 0.116663
vt 0.485388 0.203178
vt 0.490000 0.250000
vt 0.485388 0.296822
vt 0.471731 0.341844
vt 0.449553 0.383337
vt 0.419706 0.419706
vt 0.383337 0.449553
vt 0.000000 1.000000
vt 0.703178 0.485388
vt 0.750000 0.490000
vt 0.796822 0.485388
vt 0.841844 0.471731
vt 0.883337 0.449553
vt 0.919706 0.419706
vt 0.949553 0.383337
vt 0.971731 0.341844
vt 0.990000 0.250000
vt 0.985388 0.203178
vt 0.971731 0.158156
vt 0.949553 0.116663
vt 0.919706 0.080294
vt 0.883337 0.050447
vt 0.841844 0.028269
vt 0.750000 0.010000
vt 0.703178 0.014612
vt 0.658156 0.028269
vt 0.616663 0.050447
vt 0.580294 0.080294
vt 0.550447 0.116663
vt 0.528269 0.158156
vt 0.510000 0.250000
vt 0.514612 0.296822
vt 0.528269 0.341844
vt 0.550447 0.383337
vt 0.580294 0.419706
vt 0.616663 0.449553
vt 0.658156 0.471731
vn -0.1071 -0.0324 0.9937
vn -0.2990 -0.0285 0.9538
vn -0.4794 -0.0236 0.8773
vn -0.6414 -0.0177 0.7670
vn -0.7787 -0.0111 0.6273
vn -0.8861 -0.0041 0.4634
vn -0.9595 0.0030 0.2818
vn -0.9960 0.0101 0.0893
vn -0.9942 0.0167 -0.1066
vn -0.9542 0.0227 -0.2985
vn -0.8775 0.0279 -0.4788
vn -0.7671 0.0319 -0.6407
vn -0.6272 0.0348 -0.7781
vn -0.4632 0.0363 -0.8855
vn -0.2815 0.0364 -0.9589
vn -0.0889 0.0351 -0.9954
vn 0.1071 0.0324 -0.9937
vn 0.2990 0.0285 -0.9538
vn 0.4794 0.0236 -0.8773
vn 0.6414 0.0177 -0.7670
vn 0.7787 0.0111 -0.6273
vn 0.8861 0.0041 -0.4634
vn 0.9595 -0.0030 -0.2818
vn 0.9960 -0.0101 -0.0893
vn 0.9942 -0.0167 0.1066
vn 0.9542 -0.0227 0.2985
vn 0.8775 -0.0279 0.4788
vn 0.7671 -0.0319 0.6407
vn 0.6272 -0.0348 0.7781
vn 0.4632 -0.0363 0.8855
vn 0.0132 0.9993 0.0340
vn 0.2815 -0.0364 0.9589
vn 0.0889 -0.0351 0.9954
vn -0.0132 -0.9993 -0.0340
vn 0.0132 0.9993 0.0341
vn 0.0131 0.9993 0.0340
vn -0.0131 -0.9993 -0.0341
vn -0.0131 -0.9993 -0.0340
usemtl red
s 1
f 1/1/1 2/2/1 3/3/1
f 4/4/2 5/5/2 2/2/2
f 6/6/3 7/7/3 5/5/3
f 8/8/4 9/9/4 7/7/4
f 10/10/5 11/11/5 9/9/5
f 12/12/6 13/13/6 11/11/6
f 14/14/7 15/15/7 13/13/7
f 16/16/8 17/17/8 15/15/8
f 18/18/9 19/19/9 17/17/9
f 20/20/10 21/21/10 19/19/10
f 22/22/11 23/23/11 21/21/11
f 24/24/12 25/25/12 23/23/12
f 26/26/13 27/27/13 25/25/13
f 28/28/14 29/29/14 27/27/14
f 30/30/15 31/31/15 29/29/15
f 32/32/16 33/33/16 31/31/16
f 34/34/17 35/35/17 33/33/17
f 36/36/18 37/37/18 35/35/18
f 38/38/19 39/39/19 37/37/19
f 40/40/20 41/41/20 39/39/20
f 42/42/21 43/43/21 41/41/21
f 44/44/22 45/45/22 43/43/22
f 46/46/23 47/47/23 45/45/23
f 48/48/24 49/49/24 47/47/24
f 50/50/25 51/51/25 49/49/25
f 52/52/26 53/53/26 51/51/26
f 54/54/27 55/55/27 53/53/27
f 56/56/28 57/57/28 55/55/28
f 58/58/29 59/59/29 57/57/29
f 60/60/30 61/61/30 59/59/30
f 54/62/31 38/63/31 22/64/31
f 62/65/32 63/66/32 61/61/32
f 64/67/33 3/68/33 63/66/33
f 15/69/34 31/70/34 47/71/34
f 1/1/1 4/4/1 2/2/1
f 4/4/2 6/6/2 5/5/2
f 6/6/3 8/8/3 7/7/3
f 8/8/4 10/10/4 9/9/4
f 10/10/5 12/12/5 11/11/5
f 12/12/6 14/14/6 13/13/6
f 14/14/7 16/16/7 15/15/7
f 16/16/8 18/18/8 17/17/8
f 18/18/9 20/20/9 19/19/9
f 20/20/10 22/22/10 21/21/10
f 22/22/11 24/24/11 23/23/11
f 24/24/12 26/26/12 25/25/12
f 26/26/13 28/28/13 27/27/13
f 28/28/14 30/30/14 29/29/14
f 30/30/15 32/32/15 31/31/15
f 32/32/16 34/34/16 33/33/16
f 34/34/17 36/36/17 35/35/17
f 36/36/18 38/38/18 37/37/18
f 38/38/19 40/40/19 39/39/19
f 40/40/20 42/42/20 41/41/20
f 42/42/21 44/44/21 43/43/21
f 44/44/22 46/46/22 45/45/22
f 46/46/23 48/48/23 47/47/23
f 48/48/24 50/50/24 49/49/24
f 50/50/25 52/52/25 51/51/25
f 52/52/26 54/54/26 53/53/26
f 54/54/27 56/56/27 55/55/27
f 56/56/28 58/58/28 57/57/28
f 58/58/29 60/60/29 59/59/29
f 60/60/30 62/65/30 61/61/30
f 6/72/31 4/73/31 62/74/31
f 4/73/31 1/75/31 62/74/31
f 1/75/31 64/76/35 62/74/31
f 62/74/31 60/77/36 58/78/31
f 58/78/31 56/79/31 62/74/31
f 56/79/31 54/62/31 62/74/31
f 54/62/31 52/80/31 50/81/31
f 50/81/31 48/82/31 46/83/31
f 46/83/31 44/84/31 42/85/31
f 42/85/31 40/86/31 38/63/31
f 38/63/31 36/87/35 34/88/31
f 34/88/31 32/89/31 30/90/31
f 30/90/31 28/91/36 26/92/31
f 26/92/31 24/93/31 22/64/31
f 22/64/31 20/94/31 18/95/31
f 18/95/31 16/96/31 14/97/31
f 14/97/31 12/98/31 10/99/31
f 10/99/31 8/100/31 6/72/31
f 54/62/31 50/81/31 38/63/31
f 50/81/31 46/83/31 38/63/31
f 46/83/31 42/85/31 38/63/31
f 38/63/31 34/88/31 30/90/31
f 30/90/31 26/92/31 38/63/31
f 26/92/31 22/64/31 38/63/31
f 22/64/31 18/95/31 6/72/31
f 18/95/31 14/97/31 6/72/31
f 14/97/31 10/99/31 6/72/31
f 6/72/31 62/74/31 54/62/31
f 6/72/31 54/62/31 22/64/31
f 62/65/32 64/67/32 63/66/32
f 64/67/33 1/101/33 3/68/33
f 63/102/34 3/103/34 2/104/34
f 2/104/34 5/105/34 7/106/34
f 7/106/34 9/107/37 11/108/34
f 11/108/34 13/109/38 15/69/34
f 15/69/34 17/110/34 19/111/34
f 19/111/34 21/112/34 23/113/34
f 23/113/34 25/114/34 27/115/34
f 27/115/34 29/116/34 31/70/34
f 31/70/34 33/117/34 35/118/34
f 35/118/34 37/119/34 39/120/34
f 39/120/34 41/121/34 43/122/34
f 43/122/34 45/123/38 47/71/34
f 47/71/34 49/124/34 51/125/34
f 51/125/34 53/126/34 47/71/34
f 53/126/34 55/127/34 47/71/34
f 55/127/34 57/128/34 59/129/34
f 59/129/34 61/130/34 55/127/34
f 61/130/34 63/102/34 55/127/34
f 63/102/34 2/104/34 15/69/34
f 2/104/34 7/106/34 15/69/34
f 7/106/34 11/108/34 15/69/34
f 15/69/34 19/111/34 23/113/34
f 23/113/34 27/115/34 15/69/34
f 27/115/34 31/70/34 15/69/34
f 31/70/34 35/118/34 47/71/34
f 35/118/34 39/120/34 47/71/34
f 39/120/34 43/122/34 47/71/34
f 47/71/34 55/127/34 63/102/34
f 63/102/34 15/69/34 47/71/34
o 立方体
v 0.094633 0.235296 1.377221
v 0.554013 0.872790 1.308863
v 0.103606 0.916318 1.400417
v -0.493751 0.243222 1.372085
v -0.479706 0.942986 0.843093
v -0.465671 0.346966 -1.684522
v -0.488679 0.261965 0.819897
v -0.456699 1.027987 -1.661326
v 0.122715 0.339040 -1.679387
v 0.099708 0.254039 0.825033
v 0.108678 0.935059 0.848230
v -0.484779 0.924244 1.395281
v 0.131688 1.020060 -1.656189
v 0.559087 0.891532 0.756673
v 0.545042 0.191769 1.285666
v 0.550115 0.210510 0.733477
vt 0.375000 0.250000
vt 0.625000 0.250000
vt 0.625000 0.250000
vt 0.375000 0.500000
vt 0.625000 0.545164
vt 0.375000 0.750000
vt 0.375000 0.545164
vt 0.625000 0.750000
vt 0.375000 1.000000
vt 0.125000 0.750000
vt 0.125000 0.545164
vt 0.875000 0.545164
vt 0.875000 0.500000
vt 0.625000 0.500000
vt 0.125000 0.500000
vt 0.625000 0.000000
vt 0.375000 0.204836
vt 0.375000 0.000000
vt 0.625000 0.204836
vt 0.375000 0.250000
vt 0.375000 0.204836
vt 0.125000 0.500000
vt 0.875000 0.500000
vt 0.875000 0.545164
vt 0.625000 1.000000
vt 0.875000 0.750000
vt 0.625000 0.204836
vt 0.125000 0.545164
vn 0.1957 -0.0360 0.9800
vn -0.0092 -0.0339 0.9994
vn -0.9999 0.0135 -0.0087
vn 0.0092 0.0339 -0.9994
vn -0.0132 -0.9993 -0.0340
vn 0.0132 0.9993 0.0340
vn 0.9999 -0.0135 0.0087
vn -0.1031 -0.9941 -0.0347
vn -0.1957 0.0360 -0.9800
vn 0.1031 0.9941 0.0347
usemtl white
s 1
f 65/131/39 66/132/39 67/133/39
f 67/133/40 68/134/40 65/131/40
f 69/135/41 70/136/41 71/137/41
f 72/138/42 73/139/42 70/136/42
f 71/137/43 73/140/43 74/141/43
f 75/142/44 72/138/44 69/135/44
f 67/143/44 69/135/44 76/144/44
f 68/134/43 74/141/43 65/145/43
f 76/144/41 71/137/41 68/134/41
f 77/146/45 74/147/45 73/148/45
f 78/149/45 79/150/45 80/151/45
f 74/141/46 79/152/46 65/145/46
f 74/147/47 78/149/47 80/151/47
f 75/142/48 66/153/48 78/154/48
f 65/131/39 79/150/39 66/132/39
f 67/133/40 76/144/40 68/134/40
f 69/135/41 72/138/41 70/136/41
f 72/138/42 77/155/42 73/139/42
f 71/137/43 70/136/43 73/140/43
f 75/142/44 77/156/44 72/138/44
f 67/143/44 75/142/44 69/135/44
f 68/134/43 71/137/43 74/141/43
f 76/144/41 69/135/41 71/137/41
f 77/146/45 75/157/45 74/147/45
f 78/149/45 66/132/45 79/150/45
f 74/141/46 80/158/46 79/152/46
f 74/147/47 75/157/47 78/149/47
f 75/142/48 67/143/48 66/153/48
