# Blender 3.1.2
# www.blender.org
mtllib HOUSE_gazou.mtl
o 立方体
v -1.450727 0.594675 1.000000
v -1.450727 2.214782 1.000000
v 1.330807 0.973793 0.312495
v 1.330807 2.022763 0.312495
v 1.330807 0.973793 -0.312495
v 1.330807 2.022763 -0.312495
v 1.330807 0.594675 1.000000
v 1.330807 2.214782 1.000000
v 1.110092 2.022763 -0.312495
v 1.110092 0.973793 -0.312495
v 1.110092 0.973793 0.312495
v 1.110092 2.022763 0.312495
v -1.450727 0.594675 0.006695
v -1.450727 2.869112 0.006695
v 1.330807 0.594675 0.006695
v 1.330807 2.869112 0.006695
v 1.330807 0.973793 0.002092
v 1.330807 2.022763 0.002092
v 1.110092 0.973793 0.002092
v 1.110092 2.022763 0.002092
v -1.450727 2.214782 -1.000000
v -1.450727 0.594675 -1.000000
v 1.330807 0.594675 -1.000000
v 1.330807 2.214782 -1.000000
v -0.816712 1.006604 -1.000000
v -0.888502 0.959961 -1.000000
v -0.816712 1.802853 -1.000000
v -0.888502 1.849496 -1.000000
v 0.696792 1.802853 -1.000000
v 0.768583 1.849496 -1.000000
v 0.696792 1.006604 -1.000000
v 0.768583 0.959961 -1.000000
v -0.816712 1.381407 -1.000000
v -0.888502 1.404729 -1.000000
v -0.816712 1.428050 -1.000000
v -0.095855 1.006604 -1.000000
v -0.024065 1.006604 -1.000000
v -0.059960 0.959961 -1.000000
v -0.024065 1.802853 -1.000000
v -0.095855 1.802853 -1.000000
v -0.059960 1.849496 -1.000000
v 0.696792 1.381407 -1.000000
v 0.696792 1.428050 -1.000000
v 0.768583 1.404729 -1.000000
v -0.024065 1.428050 -1.000000
v -0.024065 1.381407 -1.000000
v -0.095855 1.381407 -1.000000
v -0.095855 1.428050 -1.000000
v -0.816712 1.428050 -1.047520
v -0.816712 1.381407 -1.047520
v -0.888502 1.404729 -1.047520
v -0.059960 0.959961 -1.047520
v -0.095855 1.006604 -1.047520
v -0.024065 1.006604 -1.047520
v -0.059960 1.849496 -1.047520
v -0.024065 1.802853 -1.047520
v -0.095855 1.802853 -1.047520
v 0.768583 1.404729 -1.047520
v 0.696792 1.381407 -1.047520
v 0.696792 1.428050 -1.047520
v -0.095855 1.428050 -1.047520
v -0.024065 1.428050 -1.047520
v -0.024065 1.381407 -1.047520
v -0.095855 1.381407 -1.047520
v -0.816712 1.006604 -1.047520
v -0.888502 0.959961 -1.047520
v 0.768583 1.849496 -1.047520
v 0.696792 1.802853 -1.047520
v 0.768583 0.959961 -1.047520
v 0.696792 1.006604 -1.047520
v -0.888502 1.849496 -1.047520
v -0.816712 1.802853 -1.047520
vn -1.0000 -0.0000 -0.0000
vn -0.0000 -0.0000 -1.0000
vn -0.0000 -1.0000 -0.0000
vn -0.0000 -0.0000 1.0000
vn -0.0000 0.8351 0.5501
vn 1.0000 -0.0000 -0.0000
vn -0.0000 1.0000 -0.0000
vn -0.0000 0.8385 -0.5450
vt 0.375000 1.000000
vt 0.125000 0.750000
vt 0.375000 0.000000
vt 0.625000 1.000000
vt 0.875000 0.750000
vt 0.625000 0.000000
vt 0.460938 0.664062
vt 0.539062 0.664062
vt 0.460938 0.585938
vt 0.539062 0.585938
vt 0.375000 0.750000
vt 0.625000 0.750000
vt 0.539062 0.585938
vt 0.460938 0.585938
vt 0.460938 0.664062
vt 0.539062 0.664062
vt 0.125000 0.625837
vt 0.375000 0.124163
vt 0.875000 0.625837
vt 0.625000 0.124163
vt 0.375000 0.625837
vt 0.625000 0.625837
vt 0.460938 0.625262
vt 0.539062 0.625262
vt 0.460938 0.625262
vt 0.539062 0.625262
vt 0.875000 0.500000
vt 0.625000 0.250000
vt 0.125000 0.500000
vt 0.375000 0.250000
vt 0.375000 0.500000
vt 0.625000 0.500000
vt 0.438565 0.306984
vt 0.431368 0.300532
vt 0.561435 0.306984
vt 0.568632 0.300532
vt 0.561435 0.443016
vt 0.568632 0.449468
vt 0.438565 0.443016
vt 0.431367 0.449468
vt 0.496401 0.306984
vt 0.500000 0.300532
vt 0.503599 0.306984
vt 0.438565 0.371774
vt 0.438565 0.378226
vt 0.431368 0.375000
vt 0.561435 0.378226
vt 0.561435 0.371774
vt 0.568632 0.375000
vt 0.496401 0.443016
vt 0.503599 0.443016
vt 0.500000 0.449468
vt 0.503599 0.378226
vt 0.496401 0.378226
vt 0.496401 0.371774
vt 0.503599 0.371774
vt 0.503599 0.306984
vt 0.496401 0.306984
vt 0.500000 0.300532
vt 0.431368 0.375000
vt 0.438565 0.371774
vt 0.438565 0.378226
vt 0.568632 0.375000
vt 0.561435 0.378226
vt 0.561435 0.371774
vt 0.500000 0.449468
vt 0.496401 0.443016
vt 0.503599 0.443016
vt 0.503599 0.371774
vt 0.503599 0.378226
vt 0.496401 0.378226
vt 0.496401 0.371774
vt 0.438565 0.306984
vt 0.431368 0.300532
vt 0.568632 0.449468
vt 0.561435 0.443016
vt 0.431367 0.449468
vt 0.438565 0.443016
vt 0.568632 0.300532
vt 0.561435 0.306984
s 0
usemtl マテリアル.002
f 13/18/1 14/20/1 21/28/1 22/30/1
f 32/40/2 44/52/2 30/38/2 24/32/2 23/31/2
f 18/24/3 4/8/3 12/16/3 20/26/3
f 7/11/4 8/12/4 2/4/4 1/1/4
f 13/17/3 15/21/3 7/11/3 1/2/3
f 16/22/5 14/19/5 2/5/5 8/12/5
f 6/10/6 5/9/6 23/31/6 24/32/6
f 17/23/6 3/7/6 7/11/6 15/21/6
f 18/24/6 6/10/6 24/32/6 16/22/6
f 3/7/6 4/8/6 8/12/6 7/11/6
f 5/9/4 6/10/4 9/13/4 10/14/4
f 4/8/2 3/7/2 11/15/2 12/16/2
f 17/23/7 5/9/7 10/14/7 19/25/7
f 3/7/7 17/23/7 19/25/7 11/15/7
f 4/8/6 18/24/6 16/22/6 8/12/6
f 5/9/6 17/23/6 15/21/6 23/31/6
f 24/32/8 21/27/8 14/19/8 16/22/8
f 22/29/3 23/31/3 15/21/3 13/17/3
f 6/10/3 18/24/3 20/26/3 9/13/3
f 1/3/1 2/6/1 14/20/1 13/18/1
f 30/38/2 41/49/2 28/36/2 21/28/2 24/32/2
f 28/36/2 34/42/2 26/34/2 22/30/2 21/28/2
f 35/43/2 27/35/2 40/48/2 48/56/2
f 37/45/2 46/54/2 42/50/2 31/39/2
f 26/34/2 38/46/2 32/40/2 23/31/2 22/30/2
f 45/53/2 39/47/2 29/37/2 43/51/2
f 40/48/3 27/35/3 72/80/3 57/65/3
f 26/34/1 34/42/1 51/59/1 66/74/1
f 46/54/6 37/45/6 54/62/6 63/71/6
f 28/36/7 41/49/7 55/63/7 71/79/7
f 47/55/3 33/41/3 50/58/3 64/72/3
f 44/52/6 32/40/6 69/77/6 58/66/6
f 37/45/7 31/39/7 70/78/7 54/62/7
f 33/41/6 25/33/6 65/73/6 50/58/6
f 35/43/7 48/56/7 61/69/7 49/57/7
f 29/37/3 39/47/3 56/64/3 68/76/3
f 32/40/3 38/46/3 52/60/3 69/77/3
f 42/50/3 46/54/3 63/71/3 59/67/3
f 34/42/1 28/36/1 71/79/1 51/59/1
f 45/53/7 43/51/7 60/68/7 62/70/7
f 41/49/7 30/38/7 67/75/7 55/63/7
f 48/56/1 40/48/1 57/65/1 61/69/1
f 27/35/6 35/43/6 49/57/6 72/80/6
f 25/33/2 33/41/2 47/55/2 36/44/2
f 31/39/1 42/50/1 59/67/1 70/78/1
f 36/44/1 47/55/1 64/72/1 53/61/1
f 38/46/3 26/34/3 66/74/3 52/60/3
f 30/38/6 44/52/6 58/66/6 67/75/6
f 39/47/6 45/53/6 62/70/6 56/64/6
f 25/33/7 36/44/7 53/61/7 65/73/7
f 43/51/1 29/37/1 68/76/1 60/68/1
usemtl マテリアル.004
f 19/25/6 20/26/6 12/16/6 11/15/6
f 10/14/6 9/13/6 20/26/6 19/25/6
usemtl マテリアル.005
f 50/58/2 51/59/2 49/57/2
f 53/61/2 54/62/2 52/60/2
f 56/64/2 57/65/2 55/63/2
f 59/67/2 60/68/2 58/66/2
f 62/70/2 63/71/2 64/72/2 61/69/2
f 50/58/2 65/73/2 66/74/2 51/59/2
f 52/60/2 66/74/2 65/73/2 53/61/2
f 55/63/2 67/75/2 68/76/2 56/64/2
f 58/66/2 69/77/2 70/78/2 59/67/2
f 72/80/2 49/57/2 51/59/2 71/79/2
f 69/77/2 52/60/2 54/62/2 70/78/2
f 71/79/2 55/63/2 57/65/2 72/80/2
f 67/75/2 58/66/2 60/68/2 68/76/2
f 62/70/2 60/68/2 59/67/2 63/71/2
f 49/57/2 61/69/2 64/72/2 50/58/2
f 63/71/2 54/62/2 53/61/2 64/72/2
f 56/64/2 62/70/2 61/69/2 57/65/2
o 立方体.001
v -1.580425 2.125957 1.135072
v 1.438826 2.125957 1.135072
v -1.580425 2.861193 0.018949
v -1.580425 2.505395 1.135274
v 1.438826 2.505395 1.135274
v -1.580425 3.240631 0.019150
v -1.580425 2.505395 -1.112019
v 1.438826 3.240631 0.019150
v 1.438826 2.505395 -1.112019
v 1.438826 2.861193 0.018949
v 1.438826 2.125957 -1.112221
v -1.580425 2.125957 -1.112221
vn -0.0000 -0.0005 1.0000
vn -0.0000 -0.8351 -0.5501
vn -1.0000 -0.0000 -0.0000
vn -0.0000 0.8351 0.5501
vn -0.0000 0.8385 -0.5450
vn 1.0000 -0.0000 -0.0000
vn -0.0000 -0.8385 0.5450
vn -0.0000 0.0005 -1.0000
vt 0.875000 0.750000
vt 0.625000 0.750000
vt 0.875000 0.625837
vt 0.875000 0.750000
vt 0.625000 0.750000
vt 0.875000 0.625837
vt 0.875000 0.500000
vt 0.625000 0.625837
vt 0.625000 0.500000
vt 0.625000 0.625837
vt 0.625000 0.500000
vt 0.875000 0.500000
s 0
usemtl マテリアル.003
f 73/81/9 74/82/9 77/85/9 76/84/9
f 82/90/10 74/82/10 73/81/10 75/83/10
f 75/83/11 73/81/11 76/84/11 78/86/11
f 80/88/12 78/86/12 76/84/12 77/85/12
f 84/92/11 75/83/11 78/86/11 79/87/11
f 81/89/13 79/87/13 78/86/13 80/88/13
f 74/82/14 82/90/14 80/88/14 77/85/14
f 82/90/14 83/91/14 81/89/14 80/88/14
f 83/91/15 82/90/15 75/83/15 84/92/15
f 83/91/16 84/92/16 79/87/16 81/89/16
o 立方体.002
v -0.092146 3.323489 -0.483909
v -0.156891 2.608263 -0.419165
v -0.092146 3.323489 -0.796991
v -0.156891 2.608263 -0.861735
v 0.220935 3.323489 -0.483909
v 0.285679 2.608263 -0.419165
v 0.220935 3.323489 -0.796991
v 0.285679 2.608263 -0.861735
v -0.156891 3.323489 -0.861735
v -0.156891 3.323489 -0.419165
v 0.285679 3.323489 -0.861735
v 0.285679 3.323489 -0.419165
v -0.092146 2.868366 -0.796991
v -0.092146 2.868366 -0.483909
v 0.220935 2.868366 -0.796991
v 0.220935 2.868366 -0.483909
vn -1.0000 -0.0000 -0.0000
vn -0.0000 -0.0000 -1.0000
vn 1.0000 -0.0000 -0.0000
vn -0.0000 -0.0000 1.0000
vn -0.0000 -1.0000 -0.0000
vn -0.0000 1.0000 -0.0000
vt 0.161573 0.713427
vt 0.625000 0.000000
vt 0.625000 1.000000
vt 0.875000 0.750000
vt 0.161573 0.536573
vt 0.625000 0.250000
vt 0.875000 0.500000
vt 0.338427 0.713427
vt 0.625000 0.750000
vt 0.338427 0.536573
vt 0.625000 0.500000
vt 0.375000 0.250000
vt 0.125000 0.500000
vt 0.375000 0.000000
vt 0.375000 1.000000
vt 0.125000 0.750000
vt 0.375000 0.500000
vt 0.375000 0.750000
vt 0.161573 0.536573
vt 0.161573 0.713427
vt 0.338427 0.536573
vt 0.338427 0.713427
s 0
usemtl マテリアル.006
f 94/106/17 93/104/17 88/98/17 86/94/17
f 93/104/18 95/109/18 92/103/18 88/98/18
f 95/109/19 96/110/19 90/101/19 92/103/19
f 96/110/20 94/107/20 86/95/20 90/101/20
f 89/100/18 100/114/18 98/112/18 85/93/18
f 92/103/21 90/101/21 86/96/21 88/99/21
f 87/97/22 93/105/22 94/108/22 85/93/22
f 91/102/22 95/109/22 93/105/22 87/97/22
f 89/100/22 96/110/22 95/109/22 91/102/22
f 85/93/22 94/108/22 96/110/22 89/100/22
f 97/111/22 98/112/22 100/114/22 99/113/22
f 87/97/20 97/111/20 99/113/20 91/102/20
f 91/102/17 99/113/17 100/114/17 89/100/17
f 85/93/19 98/112/19 97/111/19 87/97/19
o 円
v 0.000000 0.583849 3.330109
v 0.649672 0.583849 3.266122
v 1.274378 0.583849 3.076620
v 1.850110 0.583849 2.768885
v 2.354743 0.583849 2.354743
v 2.768885 0.583849 1.850110
v 3.076620 0.583849 1.274378
v 3.266122 0.583849 0.649672
v 3.330109 0.583849 -0.000000
v 3.266122 0.583849 -0.649672
v 3.076620 0.583849 -1.274378
v 2.768885 0.583849 -1.850109
v 2.354743 0.583849 -2.354743
v 1.850109 0.583849 -2.768885
v 1.274378 0.583849 -3.076620
v 0.649672 0.583849 -3.266122
v -0.000000 0.583849 -3.330109
v -0.649672 0.583849 -3.266122
v -1.274378 0.583849 -3.076620
v -1.850110 0.583849 -2.768884
v -2.354743 0.583849 -2.354743
v -2.768884 0.583849 -1.850110
v -3.076620 0.583849 -1.274378
v -3.266122 0.583849 -0.649672
v -3.330109 0.583849 0.000000
v -3.266122 0.583849 0.649672
v -3.076620 0.583849 1.274378
v -2.768885 0.583849 1.850109
v -2.354743 0.583849 2.354743
v -1.850110 0.583849 2.768885
v -1.274378 0.583849 3.076620
v -0.649672 0.583849 3.266122
v 0.649672 0.210476 3.266122
v 0.000000 0.210476 3.330109
v 1.274378 0.210476 3.076620
v 1.850110 0.210476 2.768885
v 2.354743 0.210476 2.354743
v 2.768885 0.210476 1.850110
v 3.076620 0.210476 1.274378
v 3.266122 0.210476 0.649672
v 3.330109 0.210476 -0.000000
v 3.266122 0.210476 -0.649672
v 3.076620 0.210476 -1.274378
v 2.768885 0.210476 -1.850109
v 2.354743 0.210476 -2.354743
v 1.850109 0.210476 -2.768885
v 1.274378 0.210476 -3.076620
v 0.649672 0.210476 -3.266122
v -0.000000 0.210476 -3.330109
v -0.649672 0.210476 -3.266122
v -1.274378 0.210476 -3.076620
v -1.850110 0.210476 -2.768884
v -2.354743 0.210476 -2.354743
v -2.768884 0.210476 -1.850110
v -3.076620 0.210476 -1.274378
v -3.266122 0.210476 -0.649672
v -3.330109 0.210476 0.000000
v -3.266122 0.210476 0.649672
v -3.076620 0.210476 1.274378
v -2.768885 0.210476 1.850109
v -2.354743 0.210476 2.354743
v -1.850110 0.210476 2.768885
v -1.274378 0.210476 3.076620
v -0.649672 0.210476 3.266122
vn -0.0000 1.0000 -0.0000
vn -0.0000 -1.0000 -0.0000
vn -0.9952 -0.0000 0.0980
vn 0.7730 -0.0000 -0.6344
vn -0.9569 -0.0000 0.2903
vn 0.6344 -0.0000 -0.7730
vn -0.8819 -0.0000 0.4714
vn 0.4714 -0.0000 -0.8819
vn 0.0980 -0.0000 0.9952
vn -0.7730 -0.0000 0.6344
vn 0.2903 -0.0000 -0.9569
vn 0.2903 -0.0000 0.9569
vn -0.6344 -0.0000 0.7730
vn 0.0980 -0.0000 -0.9952
vn 0.4714 -0.0000 0.8819
vn -0.4714 -0.0000 0.8819
vn -0.0980 -0.0000 -0.9952
vn 0.6344 -0.0000 0.7730
vn -0.2903 -0.0000 0.9569
vn -0.2903 -0.0000 -0.9569
vn 0.7730 -0.0000 0.6344
vn -0.0980 -0.0000 0.9952
vn -0.4714 -0.0000 -0.8819
vn 0.8819 -0.0000 0.4714
vn -0.6344 -0.0000 -0.7730
vn 0.9569 -0.0000 0.2903
vn -0.7730 -0.0000 -0.6344
vn 0.9952 -0.0000 0.0980
vn -0.8819 -0.0000 -0.4714
vn 0.9952 -0.0000 -0.0980
vn -0.9569 -0.0000 -0.2903
vn 0.9569 -0.0000 -0.2903
vn -0.9952 -0.0000 -0.0980
vn 0.8819 -0.0000 -0.4714
vt 0.000000 0.000000
vt 0.000000 0.000000
vt 0.000000 0.000000
vt 0.000000 0.000000
vt 0.000000 0.000000
vt 0.000000 0.000000
vt 0.000000 0.000000
vt 0.000000 0.000000
vt 0.000000 0.000000
vt 0.000000 0.000000
vt 0.000000 0.000000
vt 0.000000 0.000000
vt 0.000000 0.000000
vt 0.000000 0.000000
vt 0.000000 0.000000
vt 0.000000 0.000000
vt 0.000000 0.000000
vt 0.000000 0.000000
vt 0.000000 0.000000
vt 0.000000 0.000000
vt 0.000000 0.000000
vt 0.000000 0.000000
vt 0.000000 0.000000
vt 0.000000 0.000000
vt 0.000000 0.000000
vt 0.000000 0.000000
vt 0.000000 0.000000
vt 0.000000 0.000000
vt 0.000000 0.000000
vt 0.000000 0.000000
vt 0.000000 0.000000
vt 0.000000 0.000000
vt 0.000000 0.000000
vt 0.000000 0.000000
vt 0.000000 0.000000
vt 0.000000 0.000000
vt 0.000000 0.000000
vt 0.000000 0.000000
vt 0.000000 0.000000
vt 0.000000 0.000000
vt 0.000000 0.000000
vt 0.000000 0.000000
vt 0.000000 0.000000
vt 0.000000 0.000000
vt 0.000000 0.000000
vt 0.000000 0.000000
vt 0.000000 0.000000
vt 0.000000 0.000000
vt 0.000000 0.000000
vt 0.000000 0.000000
vt 0.000000 0.000000
vt 0.000000 0.000000
vt 0.000000 0.000000
vt 0.000000 0.000000
vt 0.000000 0.000000
vt 0.000000 0.000000
vt 0.000000 0.000000
vt 0.000000 0.000000
vt 0.000000 0.000000
vt 0.000000 0.000000
vt 0.000000 0.000000
vt 0.000000 0.000000
vt 0.000000 0.000000
vt 0.000000 0.000000
s 0
usemtl マテリアル
f 102/116/23 103/117/23 104/118/23 105/119/23 106/120/23 107/121/23 108/122/23 109/123/23 110/124/23 111/125/23 112/126/23 113/127/23 114/128/23 115/129/23 116/130/23 117/131/23 118/132/23 119/133/23 120/134/23 121/135/23 122/136/23 123/137/23 124/138/23 125/139/23 126/140/23 127/141/23 128/142/23 129/143/23 130/144/23 131/145/23 132/146/23 101/115/23
f 133/147/24 134/148/24 164/178/24 163/177/24 162/176/24 161/175/24 160/174/24 159/173/24 158/172/24 157/171/24 156/170/24 155/169/24 154/168/24 153/167/24 152/166/24 151/165/24 150/164/24 149/163/24 148/162/24 147/161/24 146/160/24 145/159/24 144/158/24 143/157/24 142/156/24 141/155/24 140/154/24 139/153/24 138/152/24 137/151/24 136/150/24 135/149/24
f 125/139/25 157/171/25 158/172/25 126/140/25
f 112/126/26 144/158/26 145/159/26 113/127/26
f 126/140/27 158/172/27 159/173/27 127/141/27
f 113/127/28 145/159/28 146/160/28 114/128/28
f 127/141/29 159/173/29 160/174/29 128/142/29
f 114/128/30 146/160/30 147/161/30 115/129/30
f 101/115/31 134/148/31 133/147/31 102/116/31
f 128/142/32 160/174/32 161/175/32 129/143/32
f 115/129/33 147/161/33 148/162/33 116/130/33
f 102/116/34 133/147/34 135/149/34 103/117/34
f 129/143/35 161/175/35 162/176/35 130/144/35
f 116/130/36 148/162/36 149/163/36 117/131/36
f 103/117/37 135/149/37 136/150/37 104/118/37
f 130/144/38 162/176/38 163/177/38 131/145/38
f 117/131/39 149/163/39 150/164/39 118/132/39
f 104/118/40 136/150/40 137/151/40 105/119/40
f 131/145/41 163/177/41 164/178/41 132/146/41
f 118/132/42 150/164/42 151/165/42 119/133/42
f 105/119/43 137/151/43 138/152/43 106/120/43
f 132/146/44 164/178/44 134/148/44 101/115/44
f 119/133/45 151/165/45 152/166/45 120/134/45
f 106/120/46 138/152/46 139/153/46 107/121/46
f 120/134/47 152/166/47 153/167/47 121/135/47
f 107/121/48 139/153/48 140/154/48 108/122/48
f 121/135/49 153/167/49 154/168/49 122/136/49
f 108/122/50 140/154/50 141/155/50 109/123/50
f 122/136/51 154/168/51 155/169/51 123/137/51
f 109/123/52 141/155/52 142/156/52 110/124/52
f 123/137/53 155/169/53 156/170/53 124/138/53
f 110/124/54 142/156/54 143/157/54 111/125/54
f 124/138/55 156/170/55 157/171/55 125/139/55
f 111/125/56 143/157/56 144/158/56 112/126/56
o 立方体.003
v 1.208605 0.549419 0.325391
v 1.208605 0.997379 0.325391
v 1.208605 0.549419 -0.321519
v 1.208605 0.997379 -0.321519
v 1.855515 0.549419 0.325391
v 1.855515 0.997379 0.325391
v 1.855515 0.549419 -0.321519
v 1.855515 0.997379 -0.321519
vn -1.0000 -0.0000 -0.0000
vn -0.0000 -0.0000 -1.0000
vn 1.0000 -0.0000 -0.0000
vn -0.0000 -0.0000 1.0000
vn -0.0000 -1.0000 -0.0000
vn -0.0000 1.0000 -0.0000
vt 0.375000 0.000000
vt 0.375000 1.000000
vt 0.125000 0.750000
vt 0.625000 0.000000
vt 0.625000 1.000000
vt 0.875000 0.750000
vt 0.375000 0.250000
vt 0.125000 0.500000
vt 0.625000 0.250000
vt 0.875000 0.500000
vt 0.375000 0.750000
vt 0.625000 0.750000
vt 0.375000 0.500000
vt 0.625000 0.500000
s 0
f 165/179/57 166/182/57 168/187/57 167/185/57
f 167/185/58 168/187/58 172/192/58 171/191/58
f 171/191/59 172/192/59 170/190/59 169/189/59
f 169/189/60 170/190/60 166/183/60 165/180/60
f 167/186/61 171/191/61 169/189/61 165/181/61
f 172/192/62 168/188/62 166/184/62 170/190/62
o 立方体.004
v 1.552920 0.351642 0.325391
v 1.552920 0.799602 0.325391
v 1.552920 0.351642 -0.321519
v 1.552920 0.799602 -0.321519
v 2.199830 0.351642 0.325391
v 2.199830 0.799602 0.325391
v 2.199830 0.351642 -0.321519
v 2.199830 0.799602 -0.321519
vn -1.0000 -0.0000 -0.0000
vn -0.0000 -0.0000 -1.0000
vn 1.0000 -0.0000 -0.0000
vn -0.0000 -0.0000 1.0000
vn -0.0000 -1.0000 -0.0000
vn -0.0000 1.0000 -0.0000
vt 0.375000 0.000000
vt 0.375000 1.000000
vt 0.125000 0.750000
vt 0.625000 0.000000
vt 0.625000 1.000000
vt 0.875000 0.750000
vt 0.375000 0.250000
vt 0.125000 0.500000
vt 0.625000 0.250000
vt 0.875000 0.500000
vt 0.375000 0.750000
vt 0.625000 0.750000
vt 0.375000 0.500000
vt 0.625000 0.500000
s 0
f 173/193/63 174/196/63 176/201/63 175/199/63
f 175/199/64 176/201/64 180/206/64 179/205/64
f 179/205/65 180/206/65 178/204/65 177/203/65
f 177/203/66 178/204/66 174/197/66 173/194/66
f 175/200/67 179/205/67 177/203/67 173/195/67
f 180/206/68 176/202/68 174/198/68 178/204/68
